<?xml version="1.0" encoding="utf-8"?>
<svg version="1.1" id="Q-mark" xmlns="http://www.w3.org/2000/svg" xmlns:xlink="http://www.w3.org/1999/xlink" x="0px" y="0px"
	 viewBox="0 0 600 600" width="120px" height="120px">
<path d="M489.175,427.308C448.217,488.051,378.774,528,300,528C174.079,528,72,425.921,72,300c0-26.927,4.668-52.764,13.238-76.745
	C57.635,397.355,388.425,542.099,489.175,427.308z"/>
	<g>
		<path d="M300.002,245.499c-27,0-46.5,21-46.5,49.5c0,28.501,19.5,49.501,46.5,49.501c9.6,0,18.601-2.7,25.8-7.5l-18.899-18.9
			l16.2-16.2l17.7,18c3.6-7.2,5.699-15.6,5.699-24.9C346.502,266.499,327.002,245.499,300.002,245.499z"/>
		<path d="M300,72c-88.322,0-164.914,50.22-202.779,123.663c-58.19,176.018,319.112,345.692,407.429,204.965
			C519.601,370.278,528,336.12,528,300C528,174.079,425.921,72,300,72z M363.303,374.5l-16.2-16.2c-12.9,9.3-28.801,14.7-47.101,14.7
			c-45,0-78.001-33-78.001-78.001c0-45,33-78,78.001-78c45,0,78.001,33,78.001,78c0,18.301-5.4,34.501-14.7,47.101l16.2,16.2
			L363.303,374.5z"/>
	</g>
	<path d="M473.747,490.002h6v18.6c0,6.899-5.1,12-12,12c-6.899,0-11.999-5.101-11.999-12h6c0,3.6,2.579,6.3,5.999,6.3s6-2.7,6-6.3
		V490.002z"/>
	<path d="M510.047,510.821c0-2.399-2.641-3.42-8.64-3.42c-9.479,0-13.56-2.52-13.56-8.579c0-6.12,4.8-9.42,13.8-9.42
		c8.279,0,13.799,3.84,13.799,9.6h-6c0-2.52-3.12-4.2-7.799-4.2c-5.101,0-7.8,1.381-7.8,4.021c0,2.279,2.399,3.18,8.1,3.18
		c9.899,0,14.099,2.7,14.099,8.819c0,6.36-5.039,9.78-14.398,9.78c-8.64,0-14.399-3.84-14.399-9.6h5.999c0,2.52,3.36,4.199,8.4,4.199
		C507.106,515.201,510.047,513.642,510.047,510.821z"/>
</svg>